<svg width="306" height="75" viewBox="0 0 306 75" fill="none" xmlns="http://www.w3.org/2000/svg">
<path d="M214.456 74.0103C200.056 74.0103 192.067 63.2335 192.067 48.8335C192.067 34.4335 200.707 23.6567 213.992 23.6567C229.414 23.6567 234.709 36.3845 234.616 49.8555H198.012C198.291 60.6322 203.494 69.0864 214.456 69.0864C222.446 69.0864 226.627 64.8129 228.485 58.3096H234.059C232.015 67.7858 225.233 74.0103 214.456 74.0103ZM198.105 45.3032H228.578C228.299 35.8271 223.84 28.3948 213.992 28.3948C204.237 28.3948 199.127 35.7342 198.105 45.3032Z" fill="black"/>
<path d="M182.455 73.1742C176.974 73.1742 173.257 70.6658 173.257 64.5342V29.5097H166.011V24.7716H173.257V10H179.017V24.7716H187.936V29.5097H179.017V63.6052C179.017 67.0426 180.597 68.1574 183.663 68.1574C184.963 68.1574 186.636 67.7858 187.472 67.4142H187.75V72.3381C186.171 72.8955 184.499 73.1742 182.455 73.1742Z" fill="black"/>
<path d="M97.3171 72.8029V24.7719H103.077V32.0184H103.263C106.329 27.1874 110.974 23.75 117.849 23.75C123.702 23.75 128.718 26.7229 130.669 32.4829H130.855C134.014 27.0016 139.495 23.75 146.277 23.75C154.453 23.75 160.77 29.0455 160.77 38.7074V72.8029H155.103V39.1719C155.103 32.0184 150.829 28.6739 144.976 28.6739C137.916 28.6739 131.97 33.6906 131.97 42.2377V72.8029H126.21V39.1719C126.21 32.0184 122.122 28.6739 116.548 28.6739C109.673 28.6739 103.077 34.4339 103.077 42.2377V72.8029H97.3171Z" fill="black"/>
<path d="M67.9318 69.1793C78.6157 69.1793 84.1898 60.0748 84.1898 48.8335C84.1898 37.5922 78.6157 28.4877 67.9318 28.4877C57.155 28.4877 51.5808 37.5922 51.5808 48.8335C51.5808 60.0748 57.155 69.1793 67.9318 69.1793ZM67.9318 74.0103C54.0892 74.0103 45.635 63.1406 45.635 48.8335C45.635 34.5264 54.0892 23.6567 67.9318 23.6567C81.7744 23.6567 90.0428 34.5264 90.0428 48.8335C90.0428 63.1406 81.7744 74.0103 67.9318 74.0103Z" fill="black"/>
<path d="M21.8323 74.0103C7.80387 74.0103 0 63.1406 0 48.8335C0 34.5264 7.98968 23.6567 21.9252 23.6567C32.5161 23.6567 39.6697 29.4167 41.249 39.2645H35.489C34.0955 32.1109 29.3574 28.4877 21.9252 28.4877C10.8697 28.4877 5.94581 37.6851 5.94581 48.8335C5.94581 59.9819 10.9626 69.0864 21.8323 69.0864C30.0077 69.0864 35.1174 63.9767 36.0465 56.2658H41.5277C40.4129 67.1355 33.2594 74.0103 21.8323 74.0103Z" fill="black"/>
<rect x="285.677" width="20" height="20" rx="10" fill="black"/>
</svg>
